<svg width="48" height="48" viewBox="0 0 48 48" fill="none" xmlns="http://www.w3.org/2000/svg">
<path d="M0 8C0 3.58172 3.58172 0 8 0H40C44.4183 0 48 3.58172 48 8V40C48 44.4183 44.4183 48 40 48H8C3.58172 48 0 44.4183 0 40V8Z" fill="#FFDCE8"/>
<path d="M24 11.2C31.06 11.2 36.8 16.94 36.8 24C36.8 31.06 31.06 36.8 24 36.8C16.94 36.8 11.2 31.06 11.2 24C11.2 16.94 16.94 11.2 24 11.2ZM24 8C15.2 8 8 15.2 8 24C8 32.8 15.2 40 24 40C32.8 40 40 32.8 40 24C40 15.2 32.8 8 24 8ZM24.04 30C22.94 30 22.04 30.9 22.04 32C22.04 33.1 22.94 34 24.04 34C25.14 34 26.04 33.1 26.04 32C26.04 30.9 25.14 30 24.04 30ZM24 14C20.7 14 18 16.7 18 20C18 20.88 18.72 21.6 19.6 21.6C20.48 21.6 21.2 20.88 21.2 20C21.2 18.46 22.46 17.2 24 17.2C25.54 17.2 26.8 18.46 26.8 20C26.8 21.54 25.54 22.8 24 22.8C23.12 22.8 22.4 23.52 22.4 24.4V26.4C22.4 27.28 23.12 28 24 28C24.88 28 25.6 27.28 25.6 26.4V25.76C28.12 25.06 30 22.76 30 20C30 16.7 27.3 14 24 14Z" fill="#BA066C"/>
</svg>
