<svg width="48" height="48" viewBox="0 0 48 48" fill="none" xmlns="http://www.w3.org/2000/svg">
<path d="M0 8C0 3.58172 3.58172 0 8 0H40C44.4183 0 48 3.58172 48 8V40C48 44.4183 44.4183 48 40 48H8C3.58172 48 0 44.4183 0 40V8Z" fill="#E2D8FF"/>
<path d="M28.6195 40.22C28.4195 40.22 28.2195 40.18 28.0195 40.1L12.0195 33.7C11.4195 33.46 11.0195 32.86 11.0195 32.22V13.06C11.0195 12.9 11.0195 12.76 11.0795 12.62C11.0795 12.56 11.1195 12.5 11.1395 12.44C11.2795 12.1 11.5395 11.8 11.8995 11.6C11.8995 11.6 11.9195 11.6 11.9395 11.6L18.4195 8.38005C18.8195 8.18005 19.2995 8.16005 19.7195 8.32005L35.9995 14.72C36.6195 14.96 37.0195 15.56 37.0195 16.2V35.4C37.0195 36.28 36.2995 37 35.4195 37C34.5395 37 33.8195 36.28 33.8195 35.4V17.32L19.1995 11.56L16.5395 12.86L29.1995 17.92C29.7995 18.16 30.1995 18.76 30.1995 19.4V38.6C30.1995 39.14 29.9395 39.62 29.4995 39.92C29.2395 40.1 28.9195 40.2 28.5995 40.2L28.6195 40.22ZM14.2195 31.14L27.0195 36.26V20.5L14.2195 15.38V31.14Z" fill="#470CED"/>
</svg>
