<svg width="48" height="48" viewBox="0 0 48 48" fill="none" xmlns="http://www.w3.org/2000/svg">
<path d="M0 8C0 3.58172 3.58172 0 8 0H40C44.4183 0 48 3.58172 48 8V40C48 44.4183 44.4183 48 40 48H8C3.58172 48 0 44.4183 0 40V8Z" fill="#FFF3B8"/>
<path fill-rule="evenodd" clip-rule="evenodd" d="M37.24 33.5C37.54 33.82 37.96 34 38.4 34H38.42C38.6 34 38.8 33.96 39 33.88C39.62 33.64 40.02 33.06 40.02 32.4V13.6C40.02 10.52 37.5 8 34.42 8H21.62C18.54 8 16.02 10.52 16.02 13.6V14H13.6C10.52 14 8 16.52 8 19.6V38.4C8 39.04 8.42 39.64 9.02 39.88C9.2 39.96 9.4 40 9.6 40H9.62C10.04 40 10.48 39.82 10.78 39.5L16.7 33.2H26.4C29.3746 33.2 31.8268 30.8496 31.9912 27.9143L37.24 33.5ZM28.8 27.2V27.6C28.8 28.92 27.72 30 26.4 30H16C15.56 30 15.14 30.18 14.84 30.5L11.2 34.36V19.6C11.2 18.26 12.26 17.2 13.6 17.2H16.02V21.6C16.02 24.68 18.54 27.2 21.62 27.2H28.8ZM19.2 21.6C19.2 22.92 20.28 24 21.6 24H32C32.44 24 32.86 24.18 33.16 24.5L36.8 28.36V13.6C36.8 12.28 35.72 11.2 34.4 11.2H21.6C20.26 11.2 19.2 12.26 19.2 13.6V21.6Z" fill="#A93E00"/>
</svg>
