<svg width="48" height="48" viewBox="0 0 48 48" fill="none" xmlns="http://www.w3.org/2000/svg">
<path d="M0 8C0 3.58172 3.58172 0 8 0H40C44.4183 0 48 3.58172 48 8V40C48 44.4183 44.4183 48 40 48H8C3.58172 48 0 44.4183 0 40V8Z" fill="#FFDCF3"/>
<path d="M32.26 40H15.46C14.58 40 13.86 39.28 13.86 38.4C13.86 37.52 14.58 36.8 15.46 36.8H19.88V32.04H13.6C10.52 32.04 8 29.52 8 26.44V13.6C8 10.52 10.52 8 13.6 8H34.4C37.48 8 40 10.52 40 13.6V26.42C40 29.52 37.48 32.02 34.4 32.02H27.86V36.78H32.26C33.14 36.78 33.86 37.5 33.86 38.38C33.86 39.26 33.14 39.98 32.26 39.98V40ZM23.08 36.8H24.62V32.04H23.06V36.8H23.08ZM13.6 11.2C12.28 11.2 11.2 12.28 11.2 13.6V26.42C11.2 27.74 12.28 28.82 13.6 28.82H34.4C35.72 28.82 36.8 27.74 36.8 26.42V13.6C36.8 12.28 35.72 11.2 34.4 11.2H13.6Z" fill="#A100C2"/>
</svg>
